<?xml version="1.0" standalone="no"?>
<!DOCTYPE svg PUBLIC "-//W3C//DTD SVG 20010904//EN"
 "http://www.w3.org/TR/2001/REC-SVG-20010904/DTD/svg10.dtd">
<svg version="1.0" xmlns="http://www.w3.org/2000/svg"
 width="3000.000000pt" height="2455.000000pt" viewBox="0 0 3000.000000 2455.000000"
 preserveAspectRatio="xMidYMid meet">

<g transform="translate(0.000000,2455.000000) scale(0.100000,-0.100000)"
fill="#FFFFFF" stroke="none">
<path d="M13930 23153 c-188 -110 -446 -267 -657 -399 -627 -396 -761 -478
-943 -586 -595 -351 -1061 -558 -1530 -681 -172 -46 -256 -62 -460 -93 -1138
-169 -1949 -409 -2587 -765 -59 -32 -108 -57 -111 -55 -13 14 98 173 190 275
19 20 91 99 162 176 317 345 410 522 365 701 -6 24 -13 44 -16 44 -2 0 -192
-163 -421 -363 -842 -732 -1159 -999 -1312 -1102 -397 -269 -639 -683 -715
-1222 -24 -169 -17 -509 14 -669 32 -169 31 -168 69 -91 125 254 339 482 594
633 105 62 130 68 99 26 -31 -44 -86 -161 -110 -232 -19 -59 -71 -337 -71
-378 0 -9 20 20 44 64 297 553 1016 1084 1901 1404 414 150 850 244 1190 256
l160 6 -56 -58 c-155 -164 -279 -332 -471 -644 -258 -417 -398 -614 -554 -779
-113 -121 -296 -259 -436 -331 -26 -14 -46 -26 -44 -27 7 -7 265 110 521 237
304 151 350 175 715 380 552 310 703 392 946 513 605 303 1075 457 1584 519
225 27 646 14 890 -28 92 -16 342 -73 349 -80 2 -2 -32 -41 -75 -86 -170 -178
-256 -317 -492 -789 -167 -335 -256 -487 -361 -616 -28 -35 -50 -63 -48 -63 2
0 57 27 124 59 612 301 1434 495 1915 453 132 -11 315 -49 365 -76 26 -13 25
-13 -33 -21 -127 -16 -281 -80 -435 -181 -75 -50 -240 -191 -247 -211 -5 -18
22 -17 190 7 235 33 412 42 329 15 -69 -22 -213 -140 -288 -238 l-44 -57 34
-15 c19 -8 146 -53 283 -100 688 -236 886 -342 1193 -640 191 -186 343 -373
601 -740 73 -104 149 -212 169 -240 l36 -50 -55 46 c-206 174 -542 310 -900
366 -126 19 -454 25 -525 9 l-40 -9 85 -17 c293 -60 492 -235 596 -527 106
-294 118 -678 39 -1178 -20 -123 -45 -252 -92 -472 -3 -13 -8 -23 -12 -23 -3
0 -23 29 -44 65 -142 238 -346 427 -572 531 -85 38 -221 94 -232 94 -3 0 14
-16 39 -35 214 -163 273 -529 177 -1098 -27 -160 -103 -515 -113 -524 -2 -2
-22 30 -45 71 -52 95 -145 211 -208 257 -52 40 -114 79 -124 79 -4 0 7 -39 22
-86 50 -148 61 -235 66 -519 l4 -260 -34 75 c-178 394 -487 638 -989 780 -171
49 -302 64 -411 50 -176 -24 -297 -80 -587 -270 -107 -71 -228 -146 -268 -168
l-73 -39 250 -207 c482 -398 676 -601 850 -889 73 -121 195 -407 179 -422 -13
-13 -177 72 -373 195 -354 221 -541 302 -729 316 -79 6 -221 -9 -231 -25 -2
-4 15 -18 38 -31 422 -231 830 -528 891 -648 10 -19 16 -35 14 -36 -2 -2 -38
-15 -82 -30 -43 -15 -149 -61 -235 -103 -293 -141 -365 -165 -506 -167 -93 -1
-168 13 -242 45 -24 10 -43 15 -43 11 0 -19 187 -239 290 -342 304 -305 629
-503 1129 -686 372 -137 452 -172 573 -250 78 -50 203 -166 254 -236 20 -27
38 -47 41 -44 6 6 -26 231 -43 301 -43 173 -105 318 -192 450 -88 134 -326
352 -555 509 l-68 46 68 0 c82 0 240 -23 343 -50 222 -57 421 -181 536 -333
l47 -62 -7 95 c-28 391 -105 794 -213 1110 -25 74 -48 142 -51 150 -5 18 71
-65 146 -159 97 -120 189 -265 353 -552 216 -378 327 -551 493 -764 438 -566
837 -811 1394 -856 128 -10 349 -1 482 20 43 7 40 8 -55 20 -409 53 -776 313
-1117 791 -356 498 -631 1210 -698 1805 -5 50 -10 102 -10 118 l0 27 78 1 c52
0 71 3 57 9 -15 6 -8 9 30 10 163 5 263 -17 411 -89 194 -96 330 -208 729
-602 160 -157 308 -302 330 -321 150 -131 334 -236 460 -263 77 -16 179 -20
173 -6 -1 5 -38 36 -81 70 -248 196 -534 532 -1113 1306 -177 237 -349 466
-383 509 -33 44 -59 81 -58 83 6 5 148 -37 260 -78 131 -48 282 -122 379 -185
74 -48 75 -46 17 31 -88 119 -289 459 -277 470 2 2 26 -25 55 -60 99 -121 260
-244 431 -330 277 -138 562 -200 1192 -260 293 -28 470 -50 574 -71 38 -8 70
-13 72 -11 2 2 -47 23 -109 46 -224 86 -484 229 -657 359 -109 83 -300 271
-397 392 -113 140 -244 338 -398 605 -70 121 -164 283 -208 360 -71 121 -197
330 -245 403 l-15 24 49 -7 c27 -4 101 -20 164 -36 409 -102 838 -347 1138
-649 50 -52 92 -91 92 -88 0 15 -81 156 -145 253 -105 158 -172 237 -430 505
-174 182 -308 331 -302 337 9 9 118 -27 187 -62 105 -53 151 -92 390 -334 124
-125 252 -246 285 -268 186 -125 305 -154 685 -168 91 -3 203 -11 249 -16 46
-5 85 -8 87 -6 2 2 -35 18 -84 36 -185 70 -485 224 -652 335 -214 142 -448
361 -573 536 -145 205 -262 489 -301 733 -9 50 -25 151 -36 222 -133 829 -403
1264 -980 1575 l-95 51 70 -6 c363 -33 858 -175 1093 -312 24 -14 45 -23 47
-21 6 5 -163 153 -250 220 -186 141 -463 300 -700 401 -294 126 -543 192 -833
223 l-63 6 22 24 c40 43 168 125 264 170 220 102 449 148 745 148 321 0 604
-61 844 -181 37 -19 70 -32 72 -30 3 2 -27 34 -65 70 -191 180 -522 298 -1226
437 -115 23 -244 50 -285 60 -41 10 -145 32 -230 49 -501 98 -860 121 -1215
75 l-50 -6 115 66 c63 37 119 71 125 76 6 5 67 38 135 74 l125 66 -322 0
c-233 0 -323 3 -323 11 0 20 57 112 105 169 82 99 201 198 379 316 l119 79
-69 2 c-424 14 -698 34 -1254 93 -718 76 -1105 97 -1451 80 -361 -18 -600 -51
-904 -125 -76 -19 -140 -33 -141 -32 -2 1 34 45 80 97 205 234 398 408 676
610 192 140 335 230 705 446 l50 29 -165 3 c-272 5 -520 -34 -716 -112 -47
-19 -82 -30 -77 -25 25 25 273 157 573 306 654 323 715 356 910 486 370 246
632 544 834 944 67 134 141 313 128 313 -4 -1 -27 -13 -52 -27z"/>
<path d="M19335 22574 c-223 -53 -597 -103 -925 -123 -203 -13 -499 -19 -1184
-26 -291 -3 -533 -8 -537 -10 -4 -3 -243 -10 -531 -15 -288 -5 -563 -12 -613
-15 -383 -26 -708 -97 -924 -202 -40 -20 -181 -107 -312 -194 -354 -233 -470
-284 -644 -284 -85 1 -109 4 -163 27 -37 15 -65 22 -68 16 -4 -5 -9 -48 -12
-94 -6 -107 11 -158 75 -214 105 -92 298 -111 666 -65 120 15 220 25 223 23 2
-3 -17 -20 -43 -39 -53 -37 -349 -273 -373 -296 -8 -8 17 -1 55 15 90 38 195
67 320 88 122 21 417 23 585 5 157 -17 476 -72 704 -121 104 -22 190 -39 192
-37 2 2 -43 41 -99 88 -286 238 -560 394 -956 545 l-153 58 28 23 c40 32 175
97 253 122 320 103 770 90 1351 -40 434 -97 678 -198 1180 -492 370 -217 443
-259 583 -333 179 -95 291 -146 457 -206 86 -31 120 -47 94 -43 -435 55 -851
6 -1369 -162 -172 -56 -467 -163 -479 -174 -6 -5 38 -9 100 -9 255 0 664 -58
1089 -154 359 -82 589 -137 595 -143 3 -3 -11 -3 -30 1 -140 27 -522 15 -795
-25 -160 -24 -507 -88 -515 -96 -3 -2 27 -2 65 2 187 19 534 -43 935 -166 406
-124 546 -164 655 -188 55 -12 122 -27 148 -33 l49 -10 -108 -102 c-124 -116
-200 -209 -266 -321 -46 -78 -104 -212 -97 -220 6 -5 203 20 349 45 253 44
561 65 598 41 10 -6 -4 -22 -50 -58 -81 -64 -168 -114 -348 -200 -132 -63
-316 -170 -307 -179 2 -2 21 2 43 8 52 16 290 15 384 -1 99 -17 453 -101 463
-110 13 -13 -111 -42 -283 -66 -195 -29 -248 -43 -355 -98 -152 -79 -310 -266
-443 -524 -29 -56 -52 -104 -52 -108 0 -4 17 15 39 42 145 184 463 343 796
399 221 38 496 16 657 -52 74 -31 181 -100 222 -143 17 -17 34 -31 39 -31 15
0 2 266 -17 346 -9 40 -35 106 -56 148 l-39 76 67 0 c142 0 338 -57 454 -132
381 -246 433 -799 121 -1267 -69 -102 -219 -257 -323 -333 -344 -251 -688
-322 -942 -195 -75 37 -187 146 -236 229 -80 136 -107 303 -64 401 26 59 83
120 135 146 53 27 33 27 -56 0 -355 -106 -590 -366 -590 -654 -1 -195 79 -363
260 -549 208 -212 507 -356 823 -395 118 -15 355 -13 480 3 192 26 409 91 578
174 57 28 84 37 89 29 4 -7 7 -82 6 -167 -1 -177 -13 -255 -99 -648 -78 -357
-95 -459 -102 -601 l-7 -124 -47 94 c-214 431 -679 877 -1209 1158 -64 33
-121 61 -127 61 -7 0 -4 -21 9 -57 37 -106 68 -266 99 -508 45 -359 74 -498
130 -636 16 -41 30 -76 30 -78 0 -2 -39 34 -87 80 -164 157 -452 384 -669 525
-109 72 -319 182 -329 173 -2 -3 23 -45 55 -96 238 -370 612 -1146 855 -1778
289 -749 471 -1490 476 -1932 1 -57 4 -103 8 -103 8 0 74 232 101 357 115 532
154 1334 89 1846 -6 49 -9 90 -7 92 4 4 40 -120 140 -475 54 -193 117 -446
144 -585 l18 -90 13 45 c24 82 61 313 73 465 22 254 2 573 -45 756 -9 34 -14
63 -11 66 5 5 120 -142 216 -277 288 -406 492 -852 574 -1250 14 -71 26 -107
29 -95 29 92 94 581 118 885 14 177 13 730 -1 895 -15 180 -48 445 -65 529 -8
38 -13 71 -12 72 2 2 26 -27 54 -64 119 -156 317 -338 678 -622 333 -262 377
-301 545 -469 180 -180 252 -274 386 -496 279 -466 484 -962 680 -1648 50
-177 254 -979 254 -1001 0 -2 -71 66 -157 153 -154 153 -283 257 -478 387
-120 80 -120 80 -112 63 138 -325 212 -531 298 -832 283 -995 367 -2216 239
-3488 -30 -298 -53 -479 -62 -479 -4 0 -8 17 -8 38 0 49 -41 214 -80 327 -159
453 -586 1049 -1254 1755 -142 150 -250 264 -299 318 -26 29 -50 52 -52 52 -2
0 11 -24 29 -54 146 -243 139 -638 -20 -1129 -47 -146 -209 -565 -225 -582 -5
-5 -9 21 -9 62 0 153 -52 431 -113 608 -90 259 -225 520 -410 795 -199 296
-430 575 -958 1160 -297 329 -429 480 -528 603 -30 37 -56 65 -58 63 -4 -3 93
-297 276 -839 61 -180 134 -407 162 -503 184 -639 244 -1245 237 -2404 l-3
-505 -44 130 c-274 814 -632 1531 -1000 2005 -66 85 -297 330 -311 330 -5 0
12 -60 35 -132 104 -318 190 -717 290 -1345 103 -649 115 -715 160 -949 165
-837 406 -1436 754 -1872 251 -313 495 -529 1140 -1006 361 -267 479 -360 641
-502 125 -110 299 -286 400 -404 101 -118 247 -342 317 -485 33 -66 67 -136
76 -155 9 -19 15 -26 12 -15 -2 11 -23 99 -45 195 -210 906 -545 1663 -1010
2278 -195 259 -268 336 -590 623 -268 240 -408 389 -506 544 -13 20 10 4 71
-48 168 -145 334 -246 637 -388 104 -49 191 -89 194 -89 3 0 -17 25 -46 57
-157 172 -252 389 -385 888 -35 131 -63 240 -61 242 1 2 30 -32 63 -74 121
-156 300 -319 623 -567 407 -313 591 -505 722 -751 40 -75 43 -75 29 2 -28
146 -47 386 -61 753 -5 146 -12 299 -15 340 -15 190 -28 315 -46 429 -11 68
-18 125 -16 127 9 9 163 -134 236 -218 390 -447 720 -1201 995 -2278 89 -350
212 -897 271 -1208 10 -51 21 -90 25 -85 13 14 228 625 356 1008 412 1241 629
2209 694 3100 15 207 12 643 -5 840 -49 555 -203 1052 -434 1400 -22 33 -38
61 -36 64 5 4 140 -92 285 -203 663 -505 1064 -1041 1310 -1751 23 -66 66
-214 96 -330 l54 -210 -5 755 c-3 415 -7 787 -10 825 -3 39 -10 151 -15 250
-113 1937 -611 3421 -1574 4685 -289 380 -569 694 -1065 1193 l-296 299 45 -7
c477 -73 722 -138 936 -244 65 -33 120 -59 121 -57 7 6 -259 268 -352 348
-168 143 -406 313 -691 495 -28 18 461 16 725 -2 312 -22 754 -85 1001 -141
586 -135 1030 -285 1468 -495 113 -54 162 -73 162 -63 0 27 -71 199 -121 293
-263 492 -816 1032 -1589 1548 -219 146 -359 228 -570 334 -628 314 -1334 514
-2324 659 -116 17 -212 32 -214 35 -2 2 23 41 56 87 121 167 258 415 331 600
49 124 99 308 117 430 21 141 15 442 -11 557 -80 359 -273 689 -585 999 -75
76 -173 166 -218 201 -45 36 -82 67 -82 71 0 17 588 143 840 180 281 40 487
54 712 46 102 -3 193 -9 202 -12 72 -28 -107 111 -233 180 -169 93 -320 130
-596 145 -99 6 -241 15 -315 21 -74 6 -283 15 -465 20 -449 13 -557 36 -843
178 -259 130 -402 216 -847 514 -159 106 -321 213 -360 237 -67 42 -69 44 -45
53 14 5 101 22 193 38 423 73 638 160 833 334 66 59 177 186 170 193 -2 3 -27
-7 -54 -21 -318 -161 -1175 -144 -1987 40 -185 42 -475 136 -475 154 0 4 21
11 48 15 91 13 328 74 447 115 233 81 587 273 735 400 42 35 35 36 -95 4z
m2563 -5824 c63 -45 245 -224 332 -325 270 -315 484 -683 558 -957 39 -143 41
-137 -25 -78 -32 28 -103 82 -159 120 -407 273 -964 440 -1465 440 l-142 0
108 71 c164 109 492 437 684 687 30 39 58 72 62 72 3 0 25 -13 47 -30z"/>
<path d="M10744 18527 c-11 -17 -114 -187 -229 -377 -332 -552 -554 -873 -756
-1097 -207 -228 -403 -352 -555 -353 l-41 0 -7 46 c-3 26 -6 74 -6 108 l0 61
-31 -47 c-20 -31 -39 -48 -51 -48 -52 0 -128 -133 -128 -223 1 -95 73 -179
182 -213 49 -15 91 -19 188 -18 162 2 270 25 560 119 257 84 348 110 440 125
36 6 234 17 440 25 484 19 655 45 857 132 113 48 183 92 411 256 199 142 310
209 394 237 l46 15 -136 2 c-77 0 -232 13 -352 27 -258 32 -491 43 -574 27
-33 -6 -61 -10 -62 -8 -2 1 27 25 64 52 99 75 195 226 219 349 l6 30 -44 -43
c-98 -95 -216 -160 -449 -246 -85 -31 -189 -70 -230 -87 -41 -17 -81 -33 -88
-35 -6 -3 22 28 64 68 147 142 227 288 258 469 6 33 3 30 -80 -58 -149 -160
-318 -283 -485 -354 -137 -58 -137 -58 -82 10 141 176 185 313 218 681 13 152
43 338 61 385 10 25 1 18 -22 -17z m119 -1359 c26 -13 45 -48 53 -95 5 -35 3
-44 -10 -49 -27 -10 -147 13 -176 34 -23 17 -58 97 -48 108 3 2 25 8 49 13 46
9 102 5 132 -11z"/>
<path d="M5595 17456 c-8 -40 -1 -158 10 -188 6 -16 0 -18 -68 -18 l-74 0 33
-82 c18 -46 45 -141 61 -212 l28 -129 52 -24 c133 -61 244 -48 461 53 105 49
186 78 249 89 37 6 41 9 32 24 -8 12 -7 27 5 55 20 48 20 95 1 123 -24 34 -97
52 -274 69 -346 32 -449 82 -497 239 l-12 40 -7 -39z"/>
<path d="M12625 17014 c-95 -22 -304 -132 -500 -261 -435 -287 -575 -359 -748
-388 l-38 -6 107 -70 c59 -38 114 -69 122 -69 9 0 13 -2 11 -4 -2 -2 -106 -12
-232 -22 -214 -16 -232 -16 -313 0 -47 9 -108 28 -135 42 -27 13 -49 20 -49
15 0 -5 18 -54 40 -108 48 -117 113 -227 198 -334 34 -43 62 -82 62 -85 0 -14
-217 6 -292 26 -176 46 -358 149 -485 274 l-74 72 6 -40 c3 -23 10 -89 15
-149 6 -59 14 -115 17 -125 8 -21 9 -21 -133 91 -192 151 -335 215 -423 189
-51 -16 -53 -37 -8 -74 54 -42 100 -147 195 -434 97 -294 136 -385 231 -543
193 -319 423 -567 680 -732 41 -27 77 -46 79 -44 3 2 -33 56 -79 119 -46 63
-121 166 -167 228 -96 133 -172 274 -202 378 -24 82 -40 310 -23 310 5 0 20
-12 34 -26 42 -46 128 -104 212 -145 131 -62 222 -80 580 -112 75 -7 137 -11
137 -8 0 8 -170 228 -231 298 l-59 68 128 6 c109 5 142 11 232 42 58 19 145
58 194 86 91 52 246 160 246 170 0 3 -37 16 -83 29 -104 28 -283 116 -365 177
-35 26 -61 50 -58 52 3 3 26 9 52 14 25 5 74 22 108 39 128 63 204 132 625
563 181 185 287 272 401 326 68 33 83 36 160 36 117 0 178 -29 277 -131 l74
-76 -26 59 c-62 142 -163 249 -262 279 -58 18 -160 17 -238 -2z"/>
<path d="M4905 15829 c-537 -312 -821 -595 -927 -924 -27 -84 -35 -267 -15
-361 31 -145 122 -325 290 -579 200 -300 386 -508 634 -708 242 -196 298 -299
310 -571 l6 -128 23 81 c60 205 198 409 384 565 179 150 290 216 770 459 362
182 483 251 629 355 112 80 249 212 314 303 113 159 189 370 199 554 l3 60
-59 14 c-49 12 -70 12 -120 2 -104 -22 -160 -57 -346 -216 -225 -193 -324
-240 -500 -239 -196 1 -297 47 -460 213 -128 130 -196 173 -305 191 -179 29
-391 -23 -520 -128 -68 -56 -107 -107 -139 -184 l-23 -57 -51 59 c-38 43 -72
69 -125 95 -168 82 -374 65 -681 -55 -55 -22 -101 -38 -103 -37 -10 11 38 152
87 252 155 320 599 875 815 1021 81 55 39 37 -90 -37z"/>
<path d="M4430 13058 c-96 -52 -211 -168 -291 -291 -33 -50 -120 -212 -194
-359 -142 -283 -188 -363 -265 -468 -56 -75 -156 -174 -217 -215 -24 -15 -43
-29 -43 -31 0 -2 37 13 83 32 45 20 111 47 147 60 67 26 293 95 296 91 5 -6
-18 -139 -33 -182 -41 -129 -109 -237 -287 -465 -240 -305 -294 -433 -284
-674 5 -100 11 -138 38 -219 17 -55 33 -97 34 -95 2 1 -2 36 -8 77 -18 127 23
276 114 412 96 145 250 288 457 425 61 41 113 74 116 74 2 0 7 -64 9 -142 9
-278 71 -384 358 -612 157 -125 238 -207 301 -304 28 -42 52 -79 55 -81 2 -2
-11 31 -30 75 -259 605 -338 801 -411 1018 -102 305 -142 499 -152 751 -14
358 64 699 242 1056 30 60 51 109 47 109 -4 0 -41 -19 -82 -42z"/>
<path d="M6875 13044 c-59 -143 -147 -162 -406 -89 -200 57 -318 61 -407 16
l-35 -18 64 -2 c140 -3 281 -44 544 -158 293 -127 525 -207 525 -181 0 5 -6
22 -14 37 -8 15 -24 51 -35 80 l-19 52 31 -21 c65 -44 215 -110 317 -139 91
-27 391 -93 397 -88 1 1 -14 34 -32 72 -19 38 -32 71 -30 73 2 3 27 -10 56
-28 167 -103 479 -199 744 -229 50 -6 110 -14 134 -17 l44 -6 -53 69 c-30 37
-58 74 -64 82 -6 7 13 2 43 -13 29 -15 87 -37 129 -49 72 -20 96 -21 397 -19
176 1 347 -3 379 -8 33 -5 62 -8 64 -6 6 6 -160 43 -318 71 -430 75 -651 146
-826 261 -28 19 -53 34 -55 34 -2 0 -5 -27 -6 -59 -3 -105 -46 -151 -141 -151
-26 0 -71 7 -99 15 -80 24 -249 115 -416 224 -85 56 -156 101 -158 101 -2 0
-20 -40 -39 -89 -38 -98 -42 -101 -122 -101 -204 0 -426 114 -549 283 l-28 39
-16 -38z"/>
<path d="M6460 12466 c0 -45 -5 -69 -16 -80 -20 -21 -92 -21 -192 0 -64 13
-83 22 -114 52 -21 20 -38 32 -38 28 0 -29 72 -135 127 -186 105 -98 295 -173
496 -196 l61 -7 -16 24 c-10 13 -40 58 -67 100 l-49 76 93 -58 c119 -75 303
-167 458 -228 180 -72 457 -149 446 -125 -2 5 -21 42 -42 82 l-38 73 71 -50
c105 -74 280 -141 367 -141 18 0 33 1 33 3 0 1 -14 35 -30 76 -17 40 -30 77
-30 82 0 5 23 -2 50 -16 89 -45 162 -58 290 -52 133 7 204 23 465 106 300 94
430 122 545 116 40 -2 42 -2 20 8 -14 6 -83 11 -160 10 -108 0 -180 -8 -360
-38 -201 -34 -244 -38 -400 -38 -242 0 -317 18 -598 144 -85 38 -157 68 -158
66 -2 -2 14 -50 35 -106 21 -56 34 -100 27 -97 -101 45 -331 130 -526 194
-284 94 -719 235 -737 240 -10 3 -13 -14 -13 -62z"/>
<path d="M9780 12410 c8 -5 20 -10 25 -10 6 0 3 5 -5 10 -8 5 -19 10 -25 10
-5 0 -3 -5 5 -10z"/>
<path d="M5231 12285 c0 -5 6 -21 14 -35 8 -14 14 -20 14 -15 0 6 -6 21 -14
35 -8 14 -14 21 -14 15z"/>
<path d="M5274 12195 c2 -11 10 -40 17 -65 6 -25 11 -81 11 -125 -1 -241 -182
-490 -482 -663 l-75 -43 50 3 c28 1 86 1 130 0 l80 -2 -65 -68 c-111 -117
-180 -256 -236 -478 -19 -75 -34 -141 -34 -147 0 -6 43 54 96 133 198 298 360
471 534 568 141 79 314 109 454 78 196 -44 335 -156 562 -455 176 -232 293
-345 419 -406 38 -19 70 -33 72 -32 1 2 -7 32 -19 67 -15 49 -22 102 -25 217
l-6 153 84 -57 c260 -174 586 -252 1424 -338 609 -62 893 -114 1145 -209 240
-89 404 -238 464 -420 41 -123 41 -290 0 -450 -8 -32 -13 -60 -11 -63 9 -8
190 68 311 130 426 219 813 583 940 884 24 59 60 182 54 188 -2 2 -19 -26 -38
-63 -49 -96 -156 -200 -251 -245 -263 -127 -616 -95 -1259 112 -102 33 -297
96 -434 140 -312 102 -439 133 -696 172 -113 17 -299 48 -415 69 -280 51 -526
94 -715 125 -257 41 -336 90 -635 390 -246 246 -363 325 -487 325 -25 0 -38 4
-33 9 6 5 73 42 151 82 l141 74 -156 0 c-133 0 -175 4 -283 28 -162 35 -301
83 -453 156 -125 60 -262 154 -309 212 -19 24 -26 28 -22 14z"/>
<path d="M11758 10568 l-38 -10 39 -46 c73 -88 97 -170 88 -296 -9 -114 -39
-211 -112 -361 -135 -278 -372 -587 -658 -861 -221 -211 -365 -305 -547 -357
-379 -110 -771 -10 -1285 327 -138 90 -663 480 -754 560 l-24 21 7 -25 c33
-122 90 -370 110 -480 26 -145 50 -329 43 -336 -2 -2 -21 22 -42 53 -21 32
-149 168 -285 303 -136 135 -261 263 -278 285 -38 47 -38 46 -12 -31 50 -144
65 -233 65 -384 0 -95 -5 -159 -13 -185 -35 -104 -45 -125 -61 -125 -32 0
-154 105 -305 263 -85 88 -159 158 -163 153 -22 -22 -42 -592 -24 -705 6 -40
10 -75 8 -78 -10 -10 -413 87 -597 144 -307 95 -621 232 -798 350 -134 89
-280 245 -409 438 -40 60 -68 107 -268 442 -59 100 -118 194 -130 210 l-23 28
-7 -118 c-26 -415 97 -891 325 -1259 27 -43 47 -78 44 -78 -3 0 -58 31 -122
69 -141 82 -292 164 -292 158 0 -2 25 -42 56 -88 256 -382 394 -919 394 -1534
0 -299 -40 -720 -110 -1170 -114 -726 -142 -958 -160 -1337 -18 -365 8 -694
75 -975 98 -410 288 -730 585 -985 133 -114 259 -198 432 -288 108 -56 366
-170 385 -170 2 0 -29 33 -70 73 -224 224 -351 568 -422 1142 -18 149 -74 739
-70 743 1 1 47 -89 102 -200 479 -974 1060 -1631 1783 -2015 392 -208 848
-337 1360 -384 152 -14 718 -15 765 -1 23 7 0 10 -95 15 -335 17 -703 163
-1049 415 -156 114 -209 160 -390 337 -508 498 -970 1224 -1244 1956 -145 386
-252 789 -307 1154 -30 196 -37 485 -17 631 23 161 97 381 97 287 0 -39 45
-221 77 -312 61 -172 198 -401 358 -600 101 -126 409 -480 414 -476 1 2 -8 19
-21 37 -105 141 -189 389 -223 653 -13 109 -36 454 -34 515 1 14 10 -17 20
-68 102 -492 383 -860 824 -1080 240 -119 590 -219 935 -266 349 -48 652 -69
1366 -96 729 -27 963 -44 1314 -95 688 -100 1157 -312 1436 -649 101 -122 102
-121 29 19 -343 654 -711 1058 -1180 1293 -202 101 -406 167 -865 277 -473
113 -716 190 -903 287 -54 28 -59 33 -37 36 65 11 1058 -8 1235 -22 747 -63
1257 -231 1661 -548 116 -90 301 -277 384 -386 37 -49 56 -67 58 -56 5 22 -15
191 -34 284 -78 385 -249 722 -490 968 -55 56 -99 102 -97 102 20 0 694 -394
948 -555 1569 -991 2404 -2041 2709 -3408 44 -196 87 -464 103 -637 l8 -85 7
140 c12 258 -4 594 -42 915 -114 942 -481 1858 -1045 2605 -297 393 -608 712
-1010 1033 -243 195 -412 336 -730 613 -586 509 -827 698 -1160 907 -382 240
-500 327 -656 482 -115 114 -215 227 -208 234 2 2 78 -28 169 -66 91 -38 320
-133 510 -210 747 -304 1032 -429 1420 -623 744 -371 1328 -800 1839 -1347 34
-38 64 -68 66 -68 6 0 -45 178 -81 281 -94 272 -243 536 -445 790 -115 145
-398 425 -559 553 -148 118 -418 302 -574 391 -161 92 -399 208 -627 305 -793
340 -1187 654 -1457 1165 l-63 120 5 -185 c6 -209 25 -323 75 -440 17 -41 30
-75 28 -76 -1 -1 -38 25 -82 58 -145 109 -610 407 -620 397 -1 -2 6 -38 16
-79 43 -169 33 -365 -36 -715 -52 -259 -65 -369 -65 -551 0 -458 97 -1014 254
-1446 19 -54 33 -98 30 -98 -3 0 -130 109 -282 242 -474 413 -772 728 -957
1010 -38 58 -72 107 -75 107 -3 1 -15 -45 -27 -102 -12 -56 -45 -208 -73 -337
-98 -450 -152 -824 -166 -1160 -3 -85 -7 -156 -9 -158 -2 -2 -27 12 -56 31
-76 49 -322 171 -539 267 -538 239 -694 316 -878 431 -128 79 -291 207 -356
280 -96 106 -181 259 -202 365 l-6 31 59 -10 c98 -18 510 -14 643 6 864 133
1693 586 2121 1157 211 281 510 1052 574 1479 38 249 1 409 -106 463 -38 20
-138 23 -201 6z"/>
</g>
</svg>
