<svg xmlns="http://www.w3.org/2000/svg" width="512" height="512" viewBox="0 0 512 512" version="1.1"><path d="M 328.682 99.250 C 327.481 122.714, 320.784 152.218, 305.475 201.500 C 290.863 248.535, 288.159 257.771, 283.083 278 C 275.044 310.031, 273.583 320.672, 273.538 347.500 C 273.512 363.078, 273.929 372.436, 274.828 376.500 C 278.891 394.847, 284.489 407.979, 293.076 419.300 C 295.913 423.040, 298.430 425.903, 298.670 425.664 C 298.909 425.424, 297.310 421.014, 295.115 415.864 C 289.053 401.638, 286.965 390.040, 286.298 366.881 C 285.249 330.495, 291.095 296.470, 306.996 246.416 C 326.722 184.320, 330.796 168.666, 334.542 140.564 C 336.384 126.750, 336.386 114.141, 334.551 101.964 C 333.027 91.858, 331.608 87, 330.179 87 C 329.700 87, 329.026 92.513, 328.682 99.250 M 291.173 103.273 C 283.669 112.717, 276.382 118.894, 265.444 125.084 C 253.110 132.064, 249.975 134.600, 252 135.960 C 257.174 139.433, 282.277 127.590, 290.530 117.782 C 293.283 114.510, 297.331 102.342, 296.828 98.848 C 296.544 96.877, 295.780 97.475, 291.173 103.273 M 341.685 102.645 C 342.982 108.781, 342.294 124.303, 340.030 140 C 336.213 166.454, 325.204 218.341, 319.979 234.500 C 314.958 250.029, 305.689 295.827, 306.593 300.645 C 307.891 307.565, 309.945 304.566, 318.473 283.295 C 332.480 248.360, 349.956 194.592, 352.460 178.730 C 356.913 150.516, 354.457 121.422, 346.239 105.039 C 342.833 98.249, 340.496 97.020, 341.685 102.645 M 133 101.608 C 124.554 102.651, 114.074 105.451, 108.940 108.037 C 98.612 113.238, 99.125 113.497, 119.835 113.528 C 136.055 113.551, 141.774 114.037, 163.500 117.236 C 196.708 122.126, 212.353 123.403, 230 122.663 C 244.583 122.051, 250.066 121.099, 262.664 116.992 C 270.112 114.563, 273.434 112.408, 270.928 111.630 C 270.142 111.387, 260.500 110.699, 249.500 110.102 C 230.325 109.061, 207.418 106.710, 185 103.481 C 174.735 102.003, 139.948 100.749, 133 101.608 M 297.044 115.848 C 286.878 132.470, 267.912 144.724, 242.207 151.278 C 234.498 153.243, 231.035 153.492, 212 153.447 C 191.813 153.398, 189.248 153.173, 170 149.754 C 135.585 143.641, 127.514 142.672, 110.500 142.609 C 98.250 142.564, 92.977 142.961, 88 144.302 C 80.834 146.233, 66.382 152.715, 67.267 153.601 C 67.575 153.909, 72.704 153.675, 78.664 153.080 C 92.188 151.731, 101.173 152.536, 134.579 158.091 C 155.843 161.627, 160 162.588, 160 163.970 C 160 166.738, 151.581 196.152, 143.676 221 C 123.756 283.615, 116.672 321.733, 119.070 353.412 C 121.132 380.658, 127.861 400.463, 141.177 418.489 C 146.794 426.092, 148.548 426.012, 144.686 418.329 C 141.115 411.225, 137.433 399.893, 134.832 388 C 132.749 378.478, 132.536 374.985, 132.551 350.500 C 132.575 312.175, 134.562 301.744, 154.411 235.741 C 165.290 199.568, 167.303 192.068, 170.449 176 C 172.615 164.935, 172.791 164.513, 175.100 164.848 C 176.420 165.039, 177.572 165.264, 177.660 165.348 C 177.999 165.670, 171.960 199.195, 169.056 213.116 C 167.379 221.155, 164.634 232.180, 162.957 237.616 C 158.296 252.720, 151 291.324, 151 300.878 C 151 304.582, 152.368 304.894, 154.479 301.672 C 157.122 297.639, 170.826 262.342, 178.035 241 C 188.766 209.230, 192.910 192.731, 193.669 178.750 L 194.307 167 197.797 167 L 201.287 167 200.616 174.250 C 199.434 187.005, 195.344 204.566, 184.486 243.500 C 162.429 322.593, 158.656 340.125, 156.455 373.750 C 155.791 383.890, 156.305 385.747, 158.905 382.614 C 161.839 379.079, 177.974 326.918, 188.481 287 C 203.255 230.870, 207.355 208.568, 207.444 183.853 L 207.500 168.205 218 167.529 C 248.279 165.580, 269.985 156.586, 286.128 139.301 C 291.833 133.193, 295.615 127.290, 298.726 119.636 C 302.224 111.029, 301.284 108.914, 297.044 115.848 M 110.734 120.584 C 96.130 123.224, 80.813 130.778, 76.396 137.518 C 74.178 140.903, 74.918 141.350, 79.542 139.418 C 86.272 136.606, 108.805 135.527, 132 136.905 C 143.275 137.576, 157 138.776, 162.500 139.574 C 177.865 141.801, 204.935 142.575, 211.595 140.977 C 214.619 140.252, 217.330 139.276, 217.619 138.808 C 219.953 135.031, 144.172 118.842, 125.317 119.090 C 121.568 119.139, 115.005 119.811, 110.734 120.584 M 362.530 150.250 C 360.129 176.132, 352.407 206.205, 329.857 277.500 C 323.193 298.566, 316.938 322.018, 314.519 335 C 310.513 356.498, 308.466 388.678, 311.161 387.780 C 311.800 387.567, 314.233 381.792, 316.569 374.946 C 332.650 327.808, 334.469 323.590, 346.507 305.500 C 359.225 286.389, 369.309 277, 377.115 277 C 384.136 277, 385.506 282.083, 381.984 295.068 C 375.024 320.726, 372.548 339.740, 373.995 356.407 C 376.253 382.422, 382.665 398.496, 396.037 411.659 C 402.166 417.692, 411.108 423.277, 413.919 422.829 C 415.621 422.557, 414.956 421.683, 410.106 417.815 C 387.724 399.964, 379.309 360.054, 389.709 321.072 C 391.114 315.807, 393.347 307.450, 394.673 302.500 C 397.672 291.305, 398.784 275.872, 397.041 269.647 C 394.237 259.632, 385.615 256.451, 375.287 261.622 C 367.427 265.557, 355.715 277.599, 346.924 290.783 C 342.993 296.677, 339.605 301.685, 339.395 301.910 C 339.185 302.136, 339.713 299.886, 340.568 296.910 C 343.015 288.401, 350.543 274.024, 355.705 268 C 366.423 255.495, 376.262 248.975, 385.584 248.202 C 395.703 247.362, 402.398 252.070, 405.543 262.236 C 407.763 269.414, 408.575 291.991, 407.027 303.500 C 404.887 319.408, 404.673 323, 405.862 323 C 408.073 323, 411.957 315.218, 416.560 301.567 C 420.649 289.440, 421.323 286.260, 421.761 277.026 C 422.151 268.795, 421.878 265.092, 420.544 260.502 C 416.926 248.056, 411.504 240.840, 403 237.150 C 390.065 231.537, 376.138 234.312, 360.334 245.651 C 356.300 248.545, 353 250.689, 353 250.417 C 353 248.448, 357.575 241.713, 361.038 238.585 C 378.474 222.833, 411.233 225.550, 422.787 243.708 C 428.367 252.478, 429.511 257.796, 429.406 274.500 C 429.309 290.067, 427.682 299.543, 419.569 331.806 C 415.339 348.623, 412.998 362.823, 413.056 371.301 C 413.113 379.475, 414.591 386.054, 416.512 386.679 C 417.069 386.860, 418.469 383.058, 419.622 378.229 C 420.776 373.400, 424.691 361.567, 428.323 351.932 C 439.837 321.389, 444.578 301.866, 445.671 280.500 C 447.708 240.654, 427.942 215.995, 394 216.039 C 381.054 216.056, 371.350 219.520, 361.284 227.719 C 357.597 230.723, 355.988 231.578, 356.357 230.340 C 363.226 207.319, 369.214 166.944, 367.521 155.067 C 366.558 148.303, 365.038 143, 364.063 143 C 363.590 143, 362.900 146.262, 362.530 150.250 M 142.024 352.750 C 141.435 354.813, 140.685 362.350, 140.357 369.500 C 139.705 383.705, 141.310 396.530, 144.933 406.067 C 147.974 414.069, 157.887 426.447, 159.757 424.576 C 160.016 424.318, 158.882 420.370, 157.237 415.803 C 153.025 404.105, 151.422 396.160, 149.008 375 C 146.791 355.575, 145.527 349, 144.008 349 C 143.506 349, 142.612 350.688, 142.024 352.750 M 297.050 353.367 C 295.004 358.751, 294.001 368.193, 294.017 381.934 C 294.036 397.530, 295.501 407.142, 298.867 413.739 C 301.280 418.468, 307.300 424, 310.035 424 C 312.447 424, 312.451 423.823, 310.148 419.210 C 306.668 412.241, 302.530 389.277, 301.551 371.500 C 300.459 351.669, 299.367 347.273, 297.050 353.367 M 398.041 357.392 C 396.706 360.904, 396.712 376.598, 398.052 385 C 399.173 392.029, 403.556 402.417, 407.683 407.829 C 410.782 411.892, 422.986 420, 426.003 420 C 427.905 420, 427.638 419.409, 423.708 414.916 C 418.032 408.428, 411.501 397.020, 408.475 388.306 C 407.174 384.563, 405.163 376.100, 404.005 369.500 C 401.718 356.467, 399.841 352.657, 398.041 357.392" stroke="none" fill="#f9f8fa" fill-rule="evenodd"/><path d="M 37.688 1.502 C 20.428 6.246, 6.078 20.753, 1.453 38.131 C -0.692 46.190, -0.692 465.810, 1.453 473.869 C 6.142 491.486, 20.514 505.858, 38.131 510.547 C 46.190 512.692, 465.810 512.692, 473.869 510.547 C 491.313 505.904, 507.636 489.518, 510.536 473.739 C 510.916 471.670, 511.626 469.731, 512.113 469.430 C 512.624 469.114, 513 378.229, 513 254.882 C 513 130.040, 512.629 41.111, 512.110 41.432 C 511.620 41.735, 510.910 40.299, 510.532 38.241 C 507.636 22.482, 491.303 6.093, 473.869 1.453 C 466.164 -0.598, 45.154 -0.551, 37.688 1.502 M 0.491 256 C 0.491 373.975, 0.607 422.238, 0.750 363.250 C 0.892 304.263, 0.892 207.738, 0.750 148.750 C 0.607 89.763, 0.491 138.025, 0.491 256 M 328.682 99.250 C 327.481 122.714, 320.784 152.218, 305.475 201.500 C 290.863 248.535, 288.159 257.771, 283.083 278 C 275.044 310.031, 273.583 320.672, 273.538 347.500 C 273.512 363.078, 273.929 372.436, 274.828 376.500 C 278.891 394.847, 284.489 407.979, 293.076 419.300 C 295.913 423.040, 298.430 425.903, 298.670 425.664 C 298.909 425.424, 297.310 421.014, 295.115 415.864 C 289.053 401.638, 286.965 390.040, 286.298 366.881 C 285.249 330.495, 291.095 296.470, 306.996 246.416 C 326.722 184.320, 330.796 168.666, 334.542 140.564 C 336.384 126.750, 336.386 114.141, 334.551 101.964 C 333.027 91.858, 331.608 87, 330.179 87 C 329.700 87, 329.026 92.513, 328.682 99.250 M 291.173 103.273 C 283.669 112.717, 276.382 118.894, 265.444 125.084 C 253.110 132.064, 249.975 134.600, 252 135.960 C 257.174 139.433, 282.277 127.590, 290.530 117.782 C 293.283 114.510, 297.331 102.342, 296.828 98.848 C 296.544 96.877, 295.780 97.475, 291.173 103.273 M 341.685 102.645 C 342.982 108.781, 342.294 124.303, 340.030 140 C 336.213 166.454, 325.204 218.341, 319.979 234.500 C 314.958 250.029, 305.689 295.827, 306.593 300.645 C 307.891 307.565, 309.945 304.566, 318.473 283.295 C 332.480 248.360, 349.956 194.592, 352.460 178.730 C 356.913 150.516, 354.457 121.422, 346.239 105.039 C 342.833 98.249, 340.496 97.020, 341.685 102.645 M 133 101.608 C 124.554 102.651, 114.074 105.451, 108.940 108.037 C 98.612 113.238, 99.125 113.497, 119.835 113.528 C 136.055 113.551, 141.774 114.037, 163.500 117.236 C 196.708 122.126, 212.353 123.403, 230 122.663 C 244.583 122.051, 250.066 121.099, 262.664 116.992 C 270.112 114.563, 273.434 112.408, 270.928 111.630 C 270.142 111.387, 260.500 110.699, 249.500 110.102 C 230.325 109.061, 207.418 106.710, 185 103.481 C 174.735 102.003, 139.948 100.749, 133 101.608 M 297.044 115.848 C 286.878 132.470, 267.912 144.724, 242.207 151.278 C 234.498 153.243, 231.035 153.492, 212 153.447 C 191.813 153.398, 189.248 153.173, 170 149.754 C 135.585 143.641, 127.514 142.672, 110.500 142.609 C 98.250 142.564, 92.977 142.961, 88 144.302 C 80.834 146.233, 66.382 152.715, 67.267 153.601 C 67.575 153.909, 72.704 153.675, 78.664 153.080 C 92.188 151.731, 101.173 152.536, 134.579 158.091 C 155.843 161.627, 160 162.588, 160 163.970 C 160 166.738, 151.581 196.152, 143.676 221 C 123.756 283.615, 116.672 321.733, 119.070 353.412 C 121.132 380.658, 127.861 400.463, 141.177 418.489 C 146.794 426.092, 148.548 426.012, 144.686 418.329 C 141.115 411.225, 137.433 399.893, 134.832 388 C 132.749 378.478, 132.536 374.985, 132.551 350.500 C 132.575 312.175, 134.562 301.744, 154.411 235.741 C 165.290 199.568, 167.303 192.068, 170.449 176 C 172.615 164.935, 172.791 164.513, 175.100 164.848 C 176.420 165.039, 177.572 165.264, 177.660 165.348 C 177.999 165.670, 171.960 199.195, 169.056 213.116 C 167.379 221.155, 164.634 232.180, 162.957 237.616 C 158.296 252.720, 151 291.324, 151 300.878 C 151 304.582, 152.368 304.894, 154.479 301.672 C 157.122 297.639, 170.826 262.342, 178.035 241 C 188.766 209.230, 192.910 192.731, 193.669 178.750 L 194.307 167 197.797 167 L 201.287 167 200.616 174.250 C 199.434 187.005, 195.344 204.566, 184.486 243.500 C 162.429 322.593, 158.656 340.125, 156.455 373.750 C 155.791 383.890, 156.305 385.747, 158.905 382.614 C 161.839 379.079, 177.974 326.918, 188.481 287 C 203.255 230.870, 207.355 208.568, 207.444 183.853 L 207.500 168.205 218 167.529 C 248.279 165.580, 269.985 156.586, 286.128 139.301 C 291.833 133.193, 295.615 127.290, 298.726 119.636 C 302.224 111.029, 301.284 108.914, 297.044 115.848 M 110.734 120.584 C 96.130 123.224, 80.813 130.778, 76.396 137.518 C 74.178 140.903, 74.918 141.350, 79.542 139.418 C 86.272 136.606, 108.805 135.527, 132 136.905 C 143.275 137.576, 157 138.776, 162.500 139.574 C 177.865 141.801, 204.935 142.575, 211.595 140.977 C 214.619 140.252, 217.330 139.276, 217.619 138.808 C 219.953 135.031, 144.172 118.842, 125.317 119.090 C 121.568 119.139, 115.005 119.811, 110.734 120.584 M 362.530 150.250 C 360.129 176.132, 352.407 206.205, 329.857 277.500 C 323.193 298.566, 316.938 322.018, 314.519 335 C 310.513 356.498, 308.466 388.678, 311.161 387.780 C 311.800 387.567, 314.233 381.792, 316.569 374.946 C 332.650 327.808, 334.469 323.590, 346.507 305.500 C 359.225 286.389, 369.309 277, 377.115 277 C 384.136 277, 385.506 282.083, 381.984 295.068 C 375.024 320.726, 372.548 339.740, 373.995 356.407 C 376.253 382.422, 382.665 398.496, 396.037 411.659 C 402.166 417.692, 411.108 423.277, 413.919 422.829 C 415.621 422.557, 414.956 421.683, 410.106 417.815 C 387.724 399.964, 379.309 360.054, 389.709 321.072 C 391.114 315.807, 393.347 307.450, 394.673 302.500 C 397.672 291.305, 398.784 275.872, 397.041 269.647 C 394.237 259.632, 385.615 256.451, 375.287 261.622 C 367.427 265.557, 355.715 277.599, 346.924 290.783 C 342.993 296.677, 339.605 301.685, 339.395 301.910 C 339.185 302.136, 339.713 299.886, 340.568 296.910 C 343.015 288.401, 350.543 274.024, 355.705 268 C 366.423 255.495, 376.262 248.975, 385.584 248.202 C 395.703 247.362, 402.398 252.070, 405.543 262.236 C 407.763 269.414, 408.575 291.991, 407.027 303.500 C 404.887 319.408, 404.673 323, 405.862 323 C 408.073 323, 411.957 315.218, 416.560 301.567 C 420.649 289.440, 421.323 286.260, 421.761 277.026 C 422.151 268.795, 421.878 265.092, 420.544 260.502 C 416.926 248.056, 411.504 240.840, 403 237.150 C 390.065 231.537, 376.138 234.312, 360.334 245.651 C 356.300 248.545, 353 250.689, 353 250.417 C 353 248.448, 357.575 241.713, 361.038 238.585 C 378.474 222.833, 411.233 225.550, 422.787 243.708 C 428.367 252.478, 429.511 257.796, 429.406 274.500 C 429.309 290.067, 427.682 299.543, 419.569 331.806 C 415.339 348.623, 412.998 362.823, 413.056 371.301 C 413.113 379.475, 414.591 386.054, 416.512 386.679 C 417.069 386.860, 418.469 383.058, 419.622 378.229 C 420.776 373.400, 424.691 361.567, 428.323 351.932 C 439.837 321.389, 444.578 301.866, 445.671 280.500 C 447.708 240.654, 427.942 215.995, 394 216.039 C 381.054 216.056, 371.350 219.520, 361.284 227.719 C 357.597 230.723, 355.988 231.578, 356.357 230.340 C 363.226 207.319, 369.214 166.944, 367.521 155.067 C 366.558 148.303, 365.038 143, 364.063 143 C 363.590 143, 362.900 146.262, 362.530 150.250 M 142.024 352.750 C 141.435 354.813, 140.685 362.350, 140.357 369.500 C 139.705 383.705, 141.310 396.530, 144.933 406.067 C 147.974 414.069, 157.887 426.447, 159.757 424.576 C 160.016 424.318, 158.882 420.370, 157.237 415.803 C 153.025 404.105, 151.422 396.160, 149.008 375 C 146.791 355.575, 145.527 349, 144.008 349 C 143.506 349, 142.612 350.688, 142.024 352.750 M 297.050 353.367 C 295.004 358.751, 294.001 368.193, 294.017 381.934 C 294.036 397.530, 295.501 407.142, 298.867 413.739 C 301.280 418.468, 307.300 424, 310.035 424 C 312.447 424, 312.451 423.823, 310.148 419.210 C 306.668 412.241, 302.530 389.277, 301.551 371.500 C 300.459 351.669, 299.367 347.273, 297.050 353.367 M 398.041 357.392 C 396.706 360.904, 396.712 376.598, 398.052 385 C 399.173 392.029, 403.556 402.417, 407.683 407.829 C 410.782 411.892, 422.986 420, 426.003 420 C 427.905 420, 427.638 419.409, 423.708 414.916 C 418.032 408.428, 411.501 397.020, 408.475 388.306 C 407.174 384.563, 405.163 376.100, 404.005 369.500 C 401.718 356.467, 399.841 352.657, 398.041 357.392" stroke="none" fill="#64349c" fill-rule="evenodd"/></svg>